<mxfile host="65bd71144e" modified="2021-02-04T18:11:44.386Z" agent="5.0 (X11; Linux x86_64) AppleWebKit/537.36 (KHTML, like Gecko) Code/1.52.1 Chrome/83.0.4103.122 Electron/9.3.5 Safari/537.36" version="13.10.0" etag="0q3IGx4MrQU-a5A5OU4T" type="embed">
    <diagram id="W0qmxL6lV7_GWbhfZUXc" name="PÃ¡gina-1">
        <mxGraphModel dx="1211" dy="792" grid="1" gridSize="10" guides="1" tooltips="1" connect="1" arrows="1" fold="1" page="1" pageScale="1" pageWidth="827" pageHeight="1169" background="#333333" math="0" shadow="0">
            <root>
                <mxCell id="0"/>
                <mxCell id="1" parent="0"/>
                <mxCell id="10" style="edgeStyle=orthogonalEdgeStyle;rounded=0;orthogonalLoop=1;jettySize=auto;html=1;exitX=0.25;exitY=1;exitDx=0;exitDy=0;strokeColor=#FFFFFF;strokeWidth=2;" edge="1" parent="1" source="2" target="3">
                    <mxGeometry relative="1" as="geometry"/>
                </mxCell>
                <mxCell id="14" style="edgeStyle=orthogonalEdgeStyle;rounded=0;orthogonalLoop=1;jettySize=auto;html=1;exitX=0.25;exitY=1;exitDx=0;exitDy=0;strokeColor=#FFFFFF;strokeWidth=2;" edge="1" parent="1" source="2" target="4">
                    <mxGeometry relative="1" as="geometry"/>
                </mxCell>
                <mxCell id="15" style="edgeStyle=orthogonalEdgeStyle;rounded=0;orthogonalLoop=1;jettySize=auto;html=1;exitX=0.75;exitY=1;exitDx=0;exitDy=0;strokeColor=#FFFFFF;strokeWidth=2;" edge="1" parent="1" source="2" target="8">
                    <mxGeometry relative="1" as="geometry"/>
                </mxCell>
                <mxCell id="16" style="edgeStyle=orthogonalEdgeStyle;rounded=0;orthogonalLoop=1;jettySize=auto;html=1;exitX=0.75;exitY=1;exitDx=0;exitDy=0;entryX=0.75;entryY=0;entryDx=0;entryDy=0;strokeColor=#FFFFFF;strokeWidth=2;" edge="1" parent="1" source="2" target="7">
                    <mxGeometry relative="1" as="geometry"/>
                </mxCell>
                <mxCell id="17" style="edgeStyle=orthogonalEdgeStyle;rounded=0;orthogonalLoop=1;jettySize=auto;html=1;exitX=0.5;exitY=1;exitDx=0;exitDy=0;strokeColor=#FFFFFF;strokeWidth=2;" edge="1" parent="1" source="2" target="5">
                    <mxGeometry relative="1" as="geometry"/>
                </mxCell>
                <mxCell id="18" style="edgeStyle=orthogonalEdgeStyle;rounded=0;orthogonalLoop=1;jettySize=auto;html=1;exitX=0.5;exitY=1;exitDx=0;exitDy=0;strokeColor=#FFFFFF;strokeWidth=2;" edge="1" parent="1" source="2" target="6">
                    <mxGeometry relative="1" as="geometry"/>
                </mxCell>
                <mxCell id="2" value="&lt;b&gt;&lt;font style=&quot;font-size: 20px&quot;&gt;Nginx&lt;br&gt;8080:8080&lt;br&gt;&lt;/font&gt;&lt;/b&gt;" style="shape=ext;double=1;rounded=1;whiteSpace=wrap;html=1;fillColor=#008a00;strokeColor=#005700;fontColor=#ffffff;" vertex="1" parent="1">
                    <mxGeometry x="200" y="120" width="433" height="80" as="geometry"/>
                </mxCell>
                <mxCell id="3" value="&lt;span class=&quot;pl-ent&quot;&gt;&lt;b&gt;canciones_service00&lt;br&gt;3000:3000&lt;br&gt;&lt;/b&gt;&lt;/span&gt;" style="shape=ext;double=1;rounded=0;whiteSpace=wrap;html=1;fillColor=#0050ef;strokeColor=#001DBC;fontColor=#ffffff;" vertex="1" parent="1">
                    <mxGeometry x="3" y="400" width="150" height="80" as="geometry"/>
                </mxCell>
                <mxCell id="4" value="&lt;span class=&quot;pl-ent&quot;&gt;&lt;b&gt;canciones_service01&lt;br&gt;3001:3000&lt;br&gt;&lt;/b&gt;&lt;/span&gt;" style="shape=ext;double=1;rounded=0;whiteSpace=wrap;html=1;fillColor=#a20025;strokeColor=#6F0000;fontColor=#ffffff;" vertex="1" parent="1">
                    <mxGeometry x="163" y="400" width="150" height="80" as="geometry"/>
                </mxCell>
                <mxCell id="5" value="&lt;span class=&quot;pl-ent&quot;&gt;&lt;b&gt;grupos_service00&lt;br&gt;3002:3002&lt;br&gt;&lt;/b&gt;&lt;/span&gt;" style="shape=ext;double=1;rounded=0;whiteSpace=wrap;html=1;fillColor=#0050ef;strokeColor=#001DBC;fontColor=#ffffff;" vertex="1" parent="1">
                    <mxGeometry x="258" y="584" width="150" height="80" as="geometry"/>
                </mxCell>
                <mxCell id="6" value="&lt;span class=&quot;pl-ent&quot;&gt;&lt;b&gt;grupos_service01&lt;br&gt;&lt;/b&gt;3003:3002&lt;br&gt;&lt;/span&gt;" style="shape=ext;double=1;rounded=0;whiteSpace=wrap;html=1;fillColor=#a20025;strokeColor=#6F0000;fontColor=#ffffff;" vertex="1" parent="1">
                    <mxGeometry x="418" y="584" width="150" height="80" as="geometry"/>
                </mxCell>
                <mxCell id="7" value="&lt;span class=&quot;pl-ent&quot;&gt;&lt;b&gt;usuarios_service00&lt;br&gt;3004:3004&lt;br&gt;&lt;/b&gt;&lt;/span&gt;" style="shape=ext;double=1;rounded=0;whiteSpace=wrap;html=1;fillColor=#0050ef;strokeColor=#001DBC;fontColor=#ffffff;" vertex="1" parent="1">
                    <mxGeometry x="510" y="400" width="150" height="80" as="geometry"/>
                </mxCell>
                <mxCell id="8" value="&lt;span class=&quot;pl-ent&quot;&gt;&lt;b&gt;usuarios_service01&lt;br&gt;3005:3004&lt;br&gt;&lt;/b&gt;&lt;/span&gt;" style="shape=ext;double=1;rounded=0;whiteSpace=wrap;html=1;fillColor=#a20025;strokeColor=#6F0000;fontColor=#ffffff;" vertex="1" parent="1">
                    <mxGeometry x="670" y="400" width="150" height="80" as="geometry"/>
                </mxCell>
                <mxCell id="20" value="" style="endArrow=classic;html=1;entryX=0.5;entryY=0;entryDx=0;entryDy=0;fillColor=#a20025;strokeColor=#6F0000;strokeWidth=7;" edge="1" parent="1" target="2">
                    <mxGeometry width="50" height="50" relative="1" as="geometry">
                        <mxPoint x="413" y="20" as="sourcePoint"/>
                        <mxPoint x="460" y="20" as="targetPoint"/>
                    </mxGeometry>
                </mxCell>
                <mxCell id="21" value="&lt;h1&gt;&lt;font color=&quot;#ffffff&quot;&gt;Estructura del cluster&lt;/font&gt;&lt;/h1&gt;&lt;p&gt;&lt;font color=&quot;#ffffff&quot;&gt;En verde el servicio de nginx que hace de proxy y de balanceador de carga.&lt;/font&gt;&lt;/p&gt;&lt;p&gt;&lt;font color=&quot;#ffffff&quot;&gt;En azul los servicio principales del cluster.&lt;/font&gt;&lt;/p&gt;&lt;p&gt;&lt;font color=&quot;#ffffff&quot;&gt;En rojo los servicio de respaldo.&amp;nbsp;&lt;/font&gt;&lt;/p&gt;" style="text;html=1;strokeColor=none;fillColor=none;spacing=5;spacingTop=-20;whiteSpace=wrap;overflow=hidden;rounded=0;" vertex="1" parent="1">
                    <mxGeometry x="3" y="10" width="327" height="140" as="geometry"/>
                </mxCell>
                <mxCell id="22" value="&lt;div style=&quot;text-align: left ; font-size: 13px&quot;&gt;&lt;span&gt;&lt;b&gt;&lt;font style=&quot;font-size: 13px&quot; color=&quot;#ffffff&quot;&gt;http://localhost:8080/canciones&lt;/font&gt;&lt;/b&gt;&lt;/span&gt;&lt;/div&gt;&lt;div style=&quot;text-align: left ; font-size: 13px&quot;&gt;&lt;span&gt;&lt;b&gt;&lt;font style=&quot;font-size: 13px&quot; color=&quot;#ffffff&quot;&gt;http://localhost:8080/grupos&lt;/font&gt;&lt;/b&gt;&lt;/span&gt;&lt;/div&gt;&lt;div style=&quot;text-align: left ; font-size: 13px&quot;&gt;&lt;span&gt;&lt;b&gt;&lt;font style=&quot;font-size: 13px&quot; color=&quot;#ffffff&quot;&gt;http://localhost:8080/usuarios&lt;/font&gt;&lt;/b&gt;&lt;/span&gt;&lt;/div&gt;" style="text;html=1;strokeColor=none;fillColor=none;align=center;verticalAlign=middle;whiteSpace=wrap;rounded=0;" vertex="1" parent="1">
                    <mxGeometry x="421" y="20" width="199" height="60" as="geometry"/>
                </mxCell>
                <mxCell id="23" value="&lt;div style=&quot;text-align: left ; font-size: 13px&quot;&gt;&lt;b&gt;&lt;font color=&quot;#ffffff&quot;&gt;http://localhost:8080/usuarios&lt;/font&gt;&lt;/b&gt;&lt;br&gt;&lt;/div&gt;" style="text;html=1;strokeColor=none;fillColor=none;align=center;verticalAlign=middle;whiteSpace=wrap;rounded=0;" vertex="1" parent="1">
                    <mxGeometry x="530" y="220" width="199" height="60" as="geometry"/>
                </mxCell>
                <mxCell id="24" value="&lt;div style=&quot;text-align: left ; font-size: 13px&quot;&gt;&lt;b&gt;&lt;font color=&quot;#ffffff&quot;&gt;http://localhost:8080/canciones&lt;/font&gt;&lt;/b&gt;&lt;br&gt;&lt;/div&gt;" style="text;html=1;strokeColor=none;fillColor=none;align=center;verticalAlign=middle;whiteSpace=wrap;rounded=0;" vertex="1" parent="1">
                    <mxGeometry x="90" y="220" width="199" height="60" as="geometry"/>
                </mxCell>
                <mxCell id="27" value="&lt;div style=&quot;text-align: left ; font-size: 13px&quot;&gt;&lt;b&gt;&lt;font color=&quot;#ffffff&quot;&gt;http://localhost:8080/grupos&lt;/font&gt;&lt;/b&gt;&lt;br&gt;&lt;/div&gt;" style="text;html=1;strokeColor=none;fillColor=none;align=center;verticalAlign=middle;whiteSpace=wrap;rounded=0;" vertex="1" parent="1">
                    <mxGeometry x="413" y="310" width="199" height="60" as="geometry"/>
                </mxCell>
            </root>
        </mxGraphModel>
    </diagram>
</mxfile>